<?xml version="1.0" encoding="UTF-8"?>
<svg id="Layer_1" data-name="Layer 1" xmlns="http://www.w3.org/2000/svg" version="1.1" viewBox="0 0 173 46">
  <defs>
    <style>
      .cls-1 {
        fill: #003540;
        stroke-width: 0px;
      }
    </style>
  </defs>
  <path class="cls-1" d="M81.3,28.6c0,8.3-5.5,14.4-13.4,14.4s-8.2-2.1-10.1-5.6v4.2c0,.5-.3.8-.8.8h-3.3c-.5,0-.8-.3-.8-.8V3.6c0-.5.3-.8.8-.8h3.5c.5,0,.8.3.8.8v15.9c2-3.3,5.4-5.3,9.9-5.3,7.9,0,13.4,6.2,13.4,14.4h0ZM76.3,28.6c0-5.8-3.9-9.8-9.4-9.8s-9.1,4-9.1,9.8,3.8,9.7,9.1,9.7c5.4.1,9.4-3.9,9.4-9.7Z"/>
  <path class="cls-1" d="M112.6,15.6v25.9c0,.5-.3.8-.8.8h-3.3c-.5,0-.7-.3-.7-.8v-4.2c-2.1,3.5-5.5,5.6-10.2,5.6-7.9,0-13.4-6.2-13.4-14.4s5.5-14.4,13.4-14.4,8.2,2.2,10.1,5.7v-4.2c0-.5.3-.8.8-.8h3.3c.5,0,.8.3.8.8h0ZM107.6,28.6c0-5.8-3.8-9.8-9.1-9.8s-9.4,4-9.4,9.8,3.9,9.8,9.4,9.8c5.4,0,9.1-3.9,9.1-9.8Z"/>
  <path class="cls-1" d="M141.6,25.4v16.2c0,.5-.3.8-.8.8h-3.5c-.5,0-.7-.3-.7-.8v-15.3c0-4.6-2.7-7.5-6.9-7.5s-7.6,2.9-7.6,7.5v15.2c0,.5-.2.8-.7.8h-3.5c-.5,0-.8-.3-.8-.8V15.6c0-.5.3-.8.8-.8h3.3c.6,0,.8.2.8.8l.2,3.5c1.6-2.8,4.7-5,9.1-5,5.8,0,10.3,4,10.3,11.3Z"/>
  <path class="cls-1" d="M169.1,42.3h-3.8c-.4,0-.7,0-1-.5l-9.2-11.9-4.4,4.8v6.8c0,.5-.3.8-.8.8h-3.5c-.5,0-.8-.3-.8-.8V3.5c0-.5.3-.8.8-.8h3.5c.5,0,.8.3.8.8v24.9l11.8-13.2c.3-.3.6-.5,1-.5h4.3c.6,0,.7.5.3.9l-9.9,10.8,11.3,14.8c.5.7.3,1.1-.4,1.1"/>
  <path class="cls-1" d="M48.4,15.4v15c0,7.3-5.6,12.7-13,12.7s-13-5.5-13-12.7v-15c0-.4.2-.6.6-.6h4c.4,0,.6.2.6.6v14.3c.1,4.8,3.6,8.6,7.9,8.6s7.9-4,7.9-8.8v-14.1c0-.4.2-.6.6-.6h4c.2,0,.4.3.4.6"/>
  <path class="cls-1" d="M8.7,26.1c-3.3,0-6-2.7-6-6s2.7-6,6-6,6,2.7,6,6-2.7,6-6,6"/>
  <path class="cls-1" d="M8.7,43.1c-3.3,0-6-2.7-6-6s2.7-6,6-6,6,2.7,6,6-2.7,6-6,6Z"/>
</svg>